:SAMPLES-PER-SECOND 30
:FULLY-SPECIFIED
:DEGREES
843
root  -77.2227 41.1491 3.74284 -162.956 -83.3844 161.157
RightUpLeg  0.844155 -8.19213 -6.53572
RightLeg  5.58199 9.97831 -0.813939
RightFoot  -3.17048 -0.164061 1.96716
RightToes  -4.65661e-009 0 -3.6325e-017
Spine  -0.523886 1.40135 4.89712
Spine1  7.89422 2.68632 -5.29455
HEad  -10.8034 -14.6747 -5.81465
LeftShoulder1  -0.325247 4.32872 -33.2903
LeftArm  -4.6523 16.3585 -38.8662
LeftForeArm  34.7032 -11.4873 -6.97991
LeftHand  -0.135655 8.40652 -3.29338
RightShoulder  -0.752892 -5.66798 28.1468
RightArm  12.4104 -7.10384 46.5117
RightForeArm  18.2149 11.31 5.83178
RightHand  0.0874739 3.94319 0.818583
LeftUpLeg  0.66704 6.00328 1.39017
LeftLeg  1.71699 -0.0164812 -0.00619995
LeftFoot  0.752898 -0.124155 1.1057
LeftToes  9.86798e-010 -1.28139e-010 1.4132e-011
844
root  -76.9151 41.1313 3.58017 -161.07 -83.6028 159.309
RightUpLeg  0.115744 -8.29037 -6.42989
RightLeg  6.14338 9.77385 -0.501026
RightFoot  -3.18274 -0.164839 1.98841
RightToes  -4.65661e-009 0 -3.6325e-017
Spine  -0.00358106 1.33669 5.34413
Spine1  7.75194 2.71095 -5.58581
HEad  -10.075 -16.5547 -5.32465
LeftShoulder1  -0.302566 4.27111 -33.2952
LeftArm  -3.25832 15.0954 -38.836
LeftForeArm  33.3443 -12.2749 -7.04832
LeftHand  -0.146812 8.79681 -3.06087
RightShoulder  -0.761548 -5.6929 28.1346
RightArm  12.5839 -6.37588 46.6527
RightForeArm  17.4654 11.5553 5.83427
RightHand  0.0445051 4.12622 0.273636
LeftUpLeg  0.0563545 5.85527 1.44869
LeftLeg  1.7673 -0.16263 0.0778254
LeftFoot  1.31682 -0.112645 0.945375
LeftToes  9.86798e-010 -1.28139e-010 1.4132e-011
845
root  -76.5402 41.1021 3.4287 -157.466 -84.4468 156.243
RightUpLeg  -1.01488 -8.60114 -6.27366
RightLeg  6.44893 9.04228 0.01172
RightFoot  -3.1853 -0.182737 2.27861
RightToes  -4.65661e-009 0 -3.6325e-017
Spine  0.496254 1.00522 5.6032
Spine1  7.21194 2.29677 -5.30916
HEad  -10.0625 -19.401 -4.8087
LeftShoulder1  -0.298889 4.26397 -33.1844
LeftArm  -2.13376 13.5666 -39.1617
LeftForeArm  31.415 -13.0768 -6.97292
LeftHand  -0.0712281 7.70559 -1.46193
RightShoulder  -0.67404 -5.48462 27.3539
RightArm  12.7236 -6.11603 47.2085
RightForeArm  17.4477 12.7634 5.52485
RightHand  0.0604525 3.36698 0.563976
LeftUpLeg  -1.70553 5.66348 1.59477
LeftLeg  2.61226 -0.922511 0.0573184
LeftFoot  1.67492 -0.112707 0.897066
LeftToes  9.86798e-010 -1.28139e-010 1.4132e-011
846
root  -76.1942 41.0762 3.34692 -149.504 -84.9272 148.02
RightUpLeg  -1.23261 -9.6634 -7.05705
RightLeg  6.80146 9.42901 0.806704
RightFoot  -3.10363 -0.16825 2.05728
RightToes  -4.65661e-009 0 -3.6325e-017
Spine  1.5237 0.627857 6.15243
Spine1  7.21287 2.06199 -5.66553
HEad  -10.9385 -22.6205 -4.27703
LeftShoulder1  -0.260724 4.16572 -33.2542
LeftArm  -0.790734 12.9829 -39.7587
LeftForeArm  30.3667 -16.4123 -5.5843
LeftHand  -0.0703322 7.19201 -1.73626
RightShoulder  -0.684137 -5.51838 27.285
RightArm  13.3821 -4.89503 47.1474
RightForeArm  15.5618 13.5517 5.49196
RightHand  0.0174964 4.03229 -0.0622965
LeftUpLeg  -2.21184 5.19096 1.13756
LeftLeg  2.76124 -1.18471 0.117415
LeftFoot  2.26171 -0.148223 1.12759
LeftToes  9.86798e-010 -1.28139e-010 1.4132e-011
847
root  -75.7972 41.0476 3.28652 -135.925 -85.4049 134.748
RightUpLeg  -2.17351 -10.5724 -7.85564
RightLeg  7.25849 9.45025 1.40964
RightFoot  -3.23207 -0.202499 2.57056
RightToes  -4.65661e-009 0 -3.6325e-017
Spine  2.17782 0.260741 6.71943
Spine1  6.86269 1.81145 -6.09175
HEad  -11.746 -26.455 -3.34486
LeftShoulder1  -0.259976 4.16301 -33.3022
LeftArm  1.74672 11.4804 -40.0094
LeftForeArm  26.2502 -18.4203 -4.98779
LeftHand  -0.0509324 6.99241 -0.778749
RightShoulder  -0.615688 -5.33534 26.871
RightArm  13.3834 -3.89381 47.1912
RightForeArm  14.9616 14.055 5.35202
RightHand  0.0233751 4.73403 -0.0255556
LeftUpLeg  -3.63434 4.70553 0.588711
LeftLeg  3.26902 -1.58626 -0.127655
LeftFoot  2.94973 -0.11163 0.75628
LeftToes  9.86798e-010 -1.28139e-010 1.4132e-011
848
root  -75.4378 41.0371 3.2507 -121.048 -85.4306 120.038
RightUpLeg  -2.93611 -11.3777 -8.7093
RightLeg  7.64103 9.46696 1.77582
RightFoot  -3.18104 -0.213592 2.68887
RightToes  -4.65661e-009 0 -3.6325e-017
Spine  2.66138 0.149512 6.23573
Spine1  6.65271 1.52336 -5.25549
HEad  -12.5423 -29.7087 -2.31442
LeftShoulder1  -0.257492 4.15552 -33.3729
LeftArm  4.43042 10.3418 -40.5049
LeftForeArm  24.0534 -21.1858 -4.08649
LeftHand  -0.0760007 7.60879 -1.47836
RightShoulder  -0.53034 -5.11867 26.0599
RightArm  14.2452 -3.07888 46.9667
RightForeArm  13.6629 14.9698 5.26294
RightHand  0.00670928 4.66192 -0.213975
LeftUpLeg  -4.64723 4.16425 -0.0974758
LeftLeg  3.42581 -1.68229 -0.270541
LeftFoot  3.48496 0.0635056 -0.651527
LeftToes  9.86798e-010 -1.28139e-010 1.4132e-011
